#!OML:ASF \\sashay\E\Suitcase\Project 1\Capture day 1\Session 1\Male1.ASF
:FULLY-SPECIFIED
:DEGREES
510
root 0.525256 17.176 3.67743 6.62064 6.10442 4.34921
lowerback 1.44893 -2.26008 -7.36093
upperback -1.51862 -3.17527 1.43553
thorax -1.90861 -1.46637 5.70656
lowerneck -17.2102 -1.83087 -3.66241
upperneck 20.346 -1.8488 1.33004
head 9.30062 -0.999245 0.826092
rclavicle -5.41688e-015 3.97569e-016
rhumerus -30.964 -19.0411 -72.2621
rradius 27.7247
rwrist -11.8379
rhand -12.009 23.4518
rfingers 7.12502
rthumb 14.0483 -6.05341
lclavicle -5.41688e-015 3.97569e-016
lhumerus -28.4901 -4.17765 85.1401
lradius 37.4398
lwrist -3.33885
lhand -3.98189 43.5443
lfingers 7.12502
lthumb 21.7714 72.3399
rfemur -30.7435 -0.736989 15.7433
rtibia 17.6175
rfoot -9.92676 -13.6139
rtoes -0.108466
lfemur 8.03698 -4.67029 -28.2523
ltibia 15.2798
lfoot -17.4344 -6.28579
ltoes -3.88448
511
root 0.5082 17.1749 3.83181 7.04585 6.51401 4.08901
lowerback 0.724768 -2.50366 -7.26804
upperback -1.51689 -3.43937 1.65811
thorax -1.45066 -1.6181 5.85192
lowerneck -17.3569 -1.58149 -3.5373
upperneck 20.5278 -1.48048 1.11378
head 9.37819 -0.842885 0.7784
rclavicle -3.33958e-014 3.02153e-014
rhumerus -30.6436 -18.8361 -72.4289
rradius 27.5854
rwrist -11.9961
rhand -12.0683 23.5141
rfingers 7.12502
rthumb 13.9912 -5.99503
lclavicle -3.33958e-014 3.02153e-014
lhumerus -28.646 -3.97409 85.1706
lradius 37.1044
lwrist -3.29476
lhand -3.77301 42.9377
lfingers 7.12502
lthumb 21.9719 71.7099
rfemur -30.6053 -0.534095 16.121
rtibia 17.838
rfoot -9.52682 -12.8959
rtoes -1.84948
lfemur 8.03814 -5.10895 -27.7994
ltibia 15.2811
lfoot -16.52 -6.54408
ltoes -3.04972
512
root 0.489843 17.1777 3.98312 7.23589 6.74369 4.08198
lowerback 0.376568 -2.54743 -7.16581
upperback -1.53035 -3.47059 1.64456
thorax -1.27042 -1.64207 5.76195
lowerneck -16.8166 -1.47347 -3.50105
upperneck 20.2249 -1.32036 0.941997
head 9.16842 -0.784038 0.736208
rclavicle 4.84041e-014 3.69739e-014
rhumerus -31.0306 -19.4851 -72.2543
rradius 27.9986
rwrist -11.475
rhand -11.771 23.6904
rfingers 7.12502
rthumb 14.2777 -5.79873
lclavicle 4.84041e-014 3.69739e-014
lhumerus -28.6333 -3.84652 85.2627
lradius 36.6471
lwrist -3.44962
lhand -4.20705 42.7399
lfingers 7.12502
lthumb 21.5551 71.5603
rfemur -30.2918 -0.0330526 16.1578
rtibia 18.0247
rfoot -8.76601 -12.4776
rtoes -0.508394
lfemur 8.35368 -5.3944 -27.6491
ltibia 15.1973
lfoot -14.7384 -6.63737
ltoes -0.59048
513
root 0.476454 17.1954 4.16543 7.46331 7.34361 4.18419
lowerback 0.229955 -2.83893 -7.22593
upperback -1.93318 -3.85941 1.78269
thorax -1.53473 -1.81249 5.94422
lowerneck -15.098 -1.27054 -3.41247
upperneck 19.3963 -0.990333 0.31029
head 8.56087 -0.687004 0.554529
rclavicle 2.3556e-014 1.66979e-014
rhumerus -31.5225 -18.4955 -72.1711
rradius 27.9541
rwrist -12.1222
rhand -12.1783 23.5218
rfingers 7.12502
rthumb 13.8852 -5.99466
lclavicle 2.3556e-014 1.66979e-014
lhumerus -29.5629 -3.48266 85.3946
lradius 36.2297
lwrist -3.78166
lhand -3.45839 42.6761
lfingers 7.12502
lthumb 22.274 71.4124
rfemur -29.9384 0.489546 15.7766
rtibia 17.9631
rfoot -7.54175 -12.5154
rtoes 3.41188
lfemur 8.65788 -5.90315 -27.5419
ltibia 15.3214
lfoot -13.7448 -6.94099
ltoes 1.28806
514
root 0.469681 17.2205 4.31804 7.63923 7.51524 3.99875
lowerback -0.147858 -2.86595 -6.78469
upperback -1.92383 -3.86286 1.77463
thorax -1.33919 -1.82869 5.66434
lowerneck -12.8962 -1.18479 -2.81792
upperneck 17.4507 -0.920394 -0.592014
head 7.50885 -0.681786 0.178048
rclavicle -5.03919e-014 -2.78299e-014
rhumerus -31.6225 -18.9212 -72.1417
rradius 28.0334
rwrist -12.029
rhand -11.6915 23.5949
rfingers 7.12502
rthumb 14.3543 -5.88886
lclavicle -5.03919e-014 -2.78299e-014
lhumerus -29.5898 -3.34248 85.3685
lradius 35.8143
lwrist -3.98805
lhand -3.39577 43.1571
lfingers 7.12502
lthumb 22.3341 71.8862
rfemur -29.7098 0.347487 16.1256
rtibia 17.7482
rfoot -4.9941 -12.0331
rtoes 8.21494
lfemur 8.8028 -6.11203 -27.2673
ltibia 15.4858
lfoot -14.1669 -7.88547
ltoes -3.1243
515
root 0.435179 17.245 4.47939 7.81585 7.46813 3.38683
lowerback -0.489093 -2.86272 -6.41332
upperback -1.93816 -3.83044 2.06474
thorax -1.17011 -1.82219 5.7393
lowerneck -14.0949 -0.637729 -3.48359
upperneck 18.9738 -0.113271 0.17516
head 8.21993 -0.2871 0.62386
rclavicle 1.48592e-014 -1.27222e-014
rhumerus -31.4812 -19.2551 -72.0116
rradius 27.8527
rwrist -11.6839
rhand -11.6616 23.58
rfingers 7.12502
rthumb 14.3831 -5.90167
lclavicle 1.48592e-014 -1.27222e-014
lhumerus -29.4786 -3.15463 85.4381
lradius 35.035
lwrist -4.23237
lhand -3.27396 42.8466
lfingers 7.12502
lthumb 22.451 71.5616
rfemur -29.6029 2.20069 16.4017
rtibia 17.5363
rfoot -3.16196 -13.79
rtoes 17.4698
lfemur 8.68667 -5.9559 -26.3621
ltibia 15.9047
lfoot -14.0887 -8.68607
ltoes -7.42366
516
root 0.440553 17.2715 4.63371 7.65111 7.84374 2.46002
lowerback -0.470986 -2.93669 -5.02556
upperback -2.01364 -3.92095 2.27689
thorax -1.31699 -1.87774 5.18041
lowerneck -14.4076 -0.637701 -3.67011
upperneck 19.5362 -0.0708264 0.268327
head 8.46559 -0.278252 0.691933
rclavicle -1.77415e-014 1.66979e-014
rhumerus -31.7776 -19.2588 -71.9087
rradius 27.7817
rwrist -11.9081
rhand -11.4219 24.4645
rfingers 7.12502
rthumb 14.614 -5.00064
lclavicle -1.77415e-014 1.66979e-014
lhumerus -29.9157 -2.56836 85.3565
lradius 34.7665
lwrist -4.9764
lhand -3.11973 42.9087
lfingers 7.12502
lthumb 22.5991 71.6058
rfemur -28.8483 1.50307 17.7322
rtibia 17.0787
rfoot -0.809611 -13.239
rtoes 21.9803
lfemur 8.64044 -6.54623 -25.3554
ltibia 17.0229
lfoot -12.9675 -9.12162
ltoes -5.82591
517
root 0.421077 17.2707 4.78724 7.72551 7.80406 2.13714
lowerback -0.391209 -3.04798 -4.86108
upperback -2.1914 -4.07096 2.53141
thorax -1.51943 -1.94347 5.36305
lowerneck -14.57 -0.524158 -3.57631
upperneck 19.836 0.149517 -0.0755193
head 8.59347 -0.207706 0.586597
rclavicle 1.42131e-014 -1.35174e-014
rhumerus -31.6343 -19.3141 -71.7938
rradius 27.3295
rwrist -11.095
rhand -11.7704 23.7373
rfingers 7.12502
rthumb 14.2782 -5.75186
lclavicle 1.42131e-014 -1.35174e-014
lhumerus -30.1597 -1.93731 85.3173
lradius 33.7717
lwrist -5.33971
lhand -3.35637 42.0271
lfingers 7.12502
lthumb 22.3719 70.7517
rfemur -28.3627 2.08895 18.0905
rtibia 16.6862
rfoot 0.303782 -13.6315
rtoes 24.3448
lfemur 8.34924 -6.60162 -24.8504
ltibia 18.3957
lfoot -12.8766 -9.39619
ltoes -9.31391
518
root 0.410867 17.288 4.94014 7.77869 7.45341 1.49424
lowerback -0.879391 -2.82367 -3.92284
upperback -2.01986 -3.74661 2.54771
thorax -1.16491 -1.8077 4.81952
lowerneck -15.1185 -0.523446 -3.4612
upperneck 20.0486 0.117142 0.0687515
head 8.7655 -0.202248 0.612931
rclavicle 5.05907e-014 1.82882e-014
rhumerus -31.5474 -20.1184 -71.7843
rradius 27.1568
rwrist -10.9632
rhand -11.6477 24.7527
rfingers 7.12502
rthumb 14.3965 -4.728
lclavicle 5.05907e-014 1.82882e-014
lhumerus -30.0964 -1.88292 85.2056
lradius 33.4
lwrist -5.7008
lhand -2.75707 42.7828
lfingers 7.12502
lthumb 22.9471 71.4372
rfemur -28.0323 2.00462 19.1381
rtibia 16.8156
rfoot -0.199543 -13.1258
rtoes 23.7604
lfemur 7.85665 -6.58123 -24.141
ltibia 19.7779
lfoot -11.9656 -9.91677
ltoes -10.0324
519
root 0.385183 17.3059 5.09619 7.73859 7.00006 0.932405
lowerback -0.662512 -2.62414 -3.42496
upperback -2.3145 -3.48209 2.73452
thorax -1.63685 -1.66319 4.75774
lowerneck -14.7362 -0.586776 -3.49093
upperneck 20.3281 0.0748385 -0.159568
head 8.79314 -0.252068 0.536208
rclavicle 4.74101e-014 3.97569e-015
rhumerus -32.2863 -19.566 -71.679
rradius 27.4789
rwrist -11.189
rhand -11.6725 24.4242
rfingers 7.12502
rthumb 14.3726 -5.05826
lclavicle 4.74101e-014 3.97569e-015
lhumerus -30.8942 -1.58673 85.2006
lradius 32.8419
lwrist -6.37248
lhand -3.04446 41.6983
lfingers 7.12502
lthumb 22.6713 70.3866
rfemur -27.6059 2.17573 20.0661
rtibia 17.0805
rfoot -0.985608 -12.6709
rtoes 23.3483
lfemur 7.27575 -6.77624 -23.4656
ltibia 21.4872
lfoot -9.73296 -10.2906
ltoes -3.73918
520
root 0.385595 17.3131 5.24188 7.70216 6.66056 1.03547
lowerback -0.696053 -2.64158 -3.36849
upperback -2.28108 -3.50502 2.6819
thorax -1.58743 -1.67783 4.66814
lowerneck -15.2143 -0.405008 -3.21527
upperneck 20.9075 0.307336 -0.251458
head 9.07592 -0.140309 0.487913
rclavicle -2.77553e-014 1.27222e-014
rhumerus -32.0599 -19.9972 -71.6869
rradius 26.9547
rwrist -10.7653
rhand -11.2645 24.7374
rfingers 7.12502
rthumb 14.7657 -4.71662
lclavicle -2.77553e-014 1.27222e-014
lhumerus -30.9487 -0.908992 84.9704
lradius 32.2357
lwrist -6.31618
lhand -2.95443 42.4738
lfingers 7.12502
lthumb 22.7577 71.1515
rfemur -27.214 1.32186 20.3839
rtibia 17.4785
rfoot -1.3342 -10.7985
rtoes 22.5811
lfemur 6.87969 -6.75656 -23.6264
ltibia 23.1503
lfoot -7.87536 -10.5039
ltoes -2.07021
521
root 0.367071 17.3219 5.37481 7.58129 6.11309 0.367709
lowerback -0.354859 -2.38537 -2.75787
upperback -2.40801 -3.16028 2.94813
thorax -1.9628 -1.50213 4.62273
lowerneck -15.7562 -0.556999 -3.25987
upperneck 21.4475 0.169855 -0.389589
head 9.36707 -0.231988 0.431533
rclavicle 8.44835e-015 -1.19271e-014
rhumerus -32.4011 -20.1154 -71.3688
rradius 26.852
rwrist -10.5076
rhand -11.7844 24.9182
rfingers 7.12502
rthumb 14.2647 -4.57188
lclavicle 8.44835e-015 -1.19271e-014
lhumerus -31.5666 0.107806 84.8772
lradius 31.931
lwrist -7.52234
lhand -2.64095 42.7512
lfingers 7.12502
lthumb 23.0585 71.3916
rfemur -26.9733 1.07989 21.4797
rtibia 18.0332
rfoot -1.77551 -9.03095
rtoes 22.9349
lfemur 6.28291 -6.47287 -22.7978
ltibia 24.8883
lfoot -6.35299 -11.1563
ltoes -3.04405
522
root 0.366849 17.3399 5.54394 7.3991 5.91141 0.300798
lowerback -0.876532 -2.37825 -2.46555
upperback -2.02404 -3.14438 2.97566
thorax -1.28902 -1.51914 4.44865
lowerneck -16.0489 -0.528307 -3.15156
upperneck 21.4111 0.259811 -0.667445
head 9.40865 -0.212936 0.328673
rclavicle -2.49475e-014 4.77083e-015
rhumerus -31.6947 -20.4938 -71.3865
rradius 26.2028
rwrist -9.6607
rhand -11.7866 24.7617
rfingers 7.12502
rthumb 14.2626 -4.7285
lclavicle -2.49475e-014 4.77083e-015
lhumerus -31.3409 0.447792 84.8549
lradius 31.1741
lwrist -7.72335
lhand -2.83845 42.7769
lfingers 7.12502
lthumb 22.869 71.4409
rfemur -26.4145 0.0840113 21.9245
rtibia 18.5846
rfoot -2.12206 -7.56278
rtoes 22.1517
lfemur 5.73031 -6.39317 -22.6388
ltibia 26.7581
lfoot -5.20044 -11.954
ltoes -5.33248
523
root 0.360842 17.3516 5.68711 7.29283 5.75656 0.116427
lowerback -0.0788326 -2.38716 -2.07669
upperback -2.62603 -3.15467 2.97629
thorax -2.37677 -1.50015 4.28891
lowerneck -15.5229 -0.425809 -2.8931
upperneck 22.0301 0.406906 -1.01052
head 9.52728 -0.169434 0.18606
rclavicle 4.39066e-014 -1.82882e-014
rhumerus -32.7751 -20.1551 -71.172
rradius 26.1779
rwrist -9.58437
rhand -11.7516 24.7267
rfingers 7.12502
rthumb 14.2964 -4.76117
lclavicle 4.39066e-014 -1.82882e-014
lhumerus -32.7488 1.22306 84.511
lradius 30.968
lwrist -8.25912
lhand -2.69547 42.5663
lfingers 7.12502
lthumb 23.0062 71.2133
rfemur -25.8781 -0.565886 22.3919
rtibia 18.8955
rfoot -2.498 -6.61855
rtoes 21.3384
lfemur 4.94735 -6.19756 -22.2389
ltibia 28.8776
lfoot -2.93191 -12.6851
ltoes -1.42325
524
root 0.356334 17.3712 5.83746 6.98141 5.6991 -0.440738
lowerback -0.280802 -2.34382 -1.35868
upperback -2.21329 -3.08958 3.16289
thorax -1.86961 -1.49368 4.05381
lowerneck -15.9824 -0.439163 -2.86513
upperneck 22.0784 0.493016 -1.38547
head 9.63227 -0.172633 0.0617036
rclavicle -3.55079e-014 -7.95139e-016
rhumerus -32.1419 -21.0795 -70.9757
rradius 25.677
rwrist -8.63765
rhand -11.6067 24.7344
rfingers 7.12502
rthumb 14.4359 -4.74348
lclavicle -3.55079e-014 -7.95139e-016
lhumerus -32.5633 1.91167 84.3608
lradius 30.4551
lwrist -8.78134
lhand -2.43275 42.4301
lfingers 7.12502
lthumb 23.2583 71.0455
rfemur -25.1233 -1.39116 23.2895
rtibia 19.1326
rfoot -2.7513 -5.47089
rtoes 22.1134
lfemur 4.16446 -6.08285 -21.4162
ltibia 31.0385
lfoot -0.211688 -13.6203
ltoes 0.647985
